<?xml version="1.0" encoding="UTF-8"?>
<!DOCTYPE svg PUBLIC "-//W3C//DTD SVG 1.1//EN" "http://www.w3.org/Graphics/SVG/1.1/DTD/svg11.dtd">
<svg xmlns="http://www.w3.org/2000/svg" version="1.1" width="512px" height="512px" style="shape-rendering:geometricPrecision; text-rendering:geometricPrecision; image-rendering:optimizeQuality; fill-rule:evenodd; clip-rule:evenodd" xmlns:xlink="http://www.w3.org/1999/xlink">
<g><path style="opacity:0.997" fill="#000000" d="M -0.5,271.5 C -0.5,200.833 -0.5,130.167 -0.5,59.5C 1.31481,55.5212 4.31481,52.6878 8.5,51C 22.8333,50.3333 37.1667,50.3333 51.5,51C 55.6667,52.5 58.5,55.3333 60,59.5C 60.5,83.1643 60.6666,106.831 60.5,130.5C 70.5,130.5 80.5,130.5 90.5,130.5C 90.5,153.833 90.5,177.167 90.5,200.5C 80.5,200.5 70.5,200.5 60.5,200.5C 60.6666,224.169 60.5,247.836 60,271.5C 58.5,275.667 55.6667,278.5 51.5,280C 37.1667,280.667 22.8333,280.667 8.5,280C 4.31481,278.312 1.31481,275.479 -0.5,271.5 Z"/></g>
<g><path style="opacity:0.997" fill="#000000" d="M 511.5,59.5 C 511.5,130.167 511.5,200.833 511.5,271.5C 509.685,275.479 506.685,278.312 502.5,280C 488.167,280.667 473.833,280.667 459.5,280C 455.333,278.5 452.5,275.667 451,271.5C 450.5,247.836 450.333,224.169 450.5,200.5C 440.5,200.5 430.5,200.5 420.5,200.5C 420.5,177.167 420.5,153.833 420.5,130.5C 430.5,130.5 440.5,130.5 450.5,130.5C 450.333,106.831 450.5,83.1643 451,59.5C 452.5,55.3333 455.333,52.5 459.5,51C 473.833,50.3333 488.167,50.3333 502.5,51C 506.685,52.6878 509.685,55.5212 511.5,59.5 Z"/></g>
<g><path style="opacity:0.986" fill="#000000" d="M 145.5,90.5 C 167.875,87.7505 182.041,97.0838 188,118.5C 193.949,96.9168 208.116,87.7501 230.5,91C 243.279,94.6122 251.612,102.779 255.5,115.5C 265.88,91.5327 283.213,84.6994 307.5,95C 316.053,100.607 321.219,108.44 323,118.5C 328.949,96.9168 343.116,87.7501 365.5,91C 378.333,94.5 386.5,102.667 390,115.5C 390.667,148.833 390.667,182.167 390,215.5C 382.934,234.863 369.101,243.03 348.5,240C 334.44,235.942 325.94,226.775 323,212.5C 319.599,228.068 310.099,237.402 294.5,240.5C 298.171,220.995 292.838,204.495 278.5,191C 270.331,184.499 260.998,181.165 250.5,181C 213.146,180.073 175.813,180.406 138.5,182C 132.6,183.133 126.933,184.967 121.5,187.5C 120.334,163.507 120.167,139.507 121,115.5C 124.683,102.651 132.85,94.3181 145.5,90.5 Z"/></g>
<g><path style="opacity:0.992" fill="#000000" d="M 141.5,210.5 C 179.835,210.333 218.168,210.5 256.5,211C 264.29,214.918 267.29,221.252 265.5,230C 264.777,256.725 251.444,273.392 225.5,280C 212.12,280.096 198.787,280.763 185.5,282C 179.513,284.462 176.346,288.962 176,295.5C 175.169,303.888 175.503,312.221 177,320.5C 181.44,329.296 188.273,331.796 197.5,328C 203.508,323.81 206.175,317.977 205.5,310.5C 242.097,315.032 269.763,301.698 288.5,270.5C 300.783,269.887 312.283,266.554 323,260.5C 345.37,273.211 367.537,273.211 389.5,260.5C 390.666,282.826 390.833,305.159 390,327.5C 383.033,359.968 363.533,380.634 331.5,389.5C 330.667,410.159 330.167,430.825 330,451.5C 328.5,455.667 325.667,458.5 321.5,460C 277.5,460.667 233.5,460.667 189.5,460C 185.333,458.5 182.5,455.667 181,451.5C 180.5,431.169 180.333,410.836 180.5,390.5C 145.13,386.634 122.296,367.634 112,333.5C 110.38,302.868 110.047,272.201 111,241.5C 115.349,225.319 125.516,214.985 141.5,210.5 Z"/></g>
</svg>
