<svg width="60px" height="60px" xmlns="http://www.w3.org/2000/svg" viewBox="0 0 512 512"><g data-name="18_Yoga"><path d="M236.43 230.1a4.51 4.51 0 0 0-4.14 2.74l-20.38 48.1-83.3 12.54a18.75 18.75 0 0 0-13.27 8.88l-1.34 2.27a18.9 18.9 0 0 0 .47 20.21 19.1 19.1 0 0 0 20.53 7.75l25.74-9.28c1.53 7.89 3.09 26.05-8.62 45.94a41.32 41.32 0 0 0-26.85 5.4 26.68 26.68 0 0 0-21.1 11.87c-11.46 2.84-50.55 16.23-38.27 65.25l19.87-1s-16.88-42.55 26.6-48.87c10.93 0 26 1.48 35 8.22a155.22 155.22 0 0 0 23.27-25.84c9.76-8.45 21.81-48.59 18.19-68.34 0-1 0-1.93.05-2.79l15.39-5.55 16.21-5.85v-.08c13.52-4.22 20.47-17.08 20.47-28.05v-39a4.49 4.49 0 0 0-4.52-4.52z" style="fill:#dcd3d4"/><path d="M187.18 171.85v53.89s-19.66 17.47-16.24 38.69l-45.71 7.7s46.46-93.33 61.95-100.28zM307.32 172.85v53.89s19.66 17.47 16.24 38.69l45.71 7.7s-46.46-93.33-61.95-100.28z" style="fill:#e08476"/><path d="M191.63 170.69s8.77-7.11 26.5-7.07c0 0-1.47 27.88 29.63 27.88s28.15-27.88 28.15-27.88 18.94 2.69 27.76 8v55s19.19 18.06 16.19 37.78l-43.31-4.27-22.43-51-13.6-.18-22.75 51.16-42.67 5.71S170.88 251 188.87 226l2.76-56.82" style="fill:#ffeef0"/><path d="M178.39 298.2s-1.53 8.68 23.47 8.68h101.59s10.61-2.13 13-8.68c0 0-67.6-20.3-67.75-37.79.01 0-4.7 20.73-70.31 37.79z" style="fill:#dcd3d4"/><path d="m375.66 283.4-1.36-2.26a18.78 18.78 0 0 0-13.3-8.89l-83.3-12.54-20.38-48.1a4.5 4.5 0 0 0-8.63 1.76v39c0 11 7 23.83 20.47 28.06v.08l16.22 5.85 69.3 25a18.86 18.86 0 0 0 21-28zM120 283.4l1.36-2.26a18.78 18.78 0 0 1 13.28-8.89l83.3-12.54 20.38-48.1a4.5 4.5 0 0 1 8.63 1.76v39c0 11-7 23.83-20.47 28.06v.08l-16.22 5.85-69.29 25a19.09 19.09 0 0 1-20.52-7.76 18.9 18.9 0 0 1-.45-20.2zM187.58 307.18h119.1s-4.85 40.59 6.17 49c0 0-67.56 17.06-130.77 0 0 .03 10.22-25.98 5.5-49z" style="fill:#f3b5af"/><path d="M191.85 159.4V91.81c0-26.78 25-48.5 55.91-48.5 15.44 0 29.42 5.42 39.53 14.21s16.38 20.9 16.38 34.29v71.48" style="fill:#3d5890"/><path d="M191.85 160.12V99.27c0-24.1 20.56-43.65 45.91-43.65a47 47 0 0 1 32.46 12.78 42.48 42.48 0 0 1 13.45 30.87v64.35" style="fill:#4966a2"/><path d="M248.89 157.29h-3.46a34.78 34.78 0 0 1-34.78-34.79v-17.17h73v17.17a34.78 34.78 0 0 1-34.76 34.79z" style="fill:#f3b5af"/><path d="m223.54 152.2-5.41 11.42v3.5c0 13.47 12.6 24.38 28.15 24.38 15.55 0 28.15-10.91 28.15-24.38v-3.5l-4.52-10.33" style="fill:#e08476"/><path d="M308.67 447.81c-63.52 18-112.77 0-112.77 0l56.38-18.33z" style="fill:#3d5890"/><path d="M179.26 360s65.36 15.34 135.73 0c0 0 3.63 26 28.25 36.81l-104.8-6.28s-19.72-17.7-43.9-4.28-33.21-1.41-33.21-1.41 20.33-14.51 17.93-24.84z" style="fill:#4966a2"/><path d="m376.63 468.2-125.7-35.48 5.9-40.05s1.51 0 11.33.73L394 402.79a32.71 32.71 0 0 1 26.7 26.41 32.19 32.19 0 0 1-13.37 31.8l-3.72 2.59a32.21 32.21 0 0 1-26.98 4.61z" style="fill:#4966a2"/><path d="M421.15 433.22a32.22 32.22 0 0 1-13.83 26.65l-3.72 2.58a32.22 32.22 0 0 1-27 4.59l-125.7-35.48 2.13-14.47c28.55 8.98 126.97 37.43 168.12 16.13z" style="fill:#3d5890"/><path d="m125.48 468.2 112.89-29.76-5.84-10.82s-82.49-28-124.44-24.83a32.71 32.71 0 0 0-26.68 26.41A32.19 32.19 0 0 0 94.79 461l3.72 2.59a32.19 32.19 0 0 0 26.97 4.61z" style="fill:#4966a2"/><path d="m230.24 427.62-95.47-22.2-11.69.19a6.93 6.93 0 0 1-7-8 6.93 6.93 0 0 1 5.84-5.76l6.75-1s14.17-10.9 38.05-2.31c26.4 9.49 35.12-23.37 69.38 2z" style="fill:#f3b5af"/><path d="M81 433.22a32.22 32.22 0 0 0 13.83 26.65l3.72 2.58a32.22 32.22 0 0 0 27 4.59l125.7-35.48-25.77-7.56c-28.12 6.29-103.39 30.52-144.48 9.22z" style="fill:#3d5890"/><path transform="rotate(-80.46 245.568 410.12)" style="fill:#fff" d="M227.81 402.97h35.51v14.31h-35.51z"/><path style="fill:#142546" d="M18.78 444.77h23.97v12H18.78zM493.21 444.77h-67.95a38 38 0 0 0 1.09-17.26 38.66 38.66 0 0 0-31.55-31.31l-49.08-3.67c-31-17.43-34.29-66.78-34.56-81.35a19 19 0 0 0 8.4-6.1L352.64 317l.58.18a25.62 25.62 0 0 0 6.18.76 24.8 24.8 0 0 0 21.4-37.64l-1.33-2.22-45.87-80.2c-5.57-13.22-14-23.77-24.15-30.75V95.19a55.64 55.64 0 0 0-18.3-41.08 63.75 63.75 0 0 0-43.61-16.8c-34.14 0-61.91 26-61.91 57.88v70.46c-11.26 7-20.64 18.29-26.61 32.73L115.15 278l-1.32 2.18a24.93 24.93 0 0 0 27.59 36.87l32-11.51a19.59 19.59 0 0 0 9.06 6c.21 12.11-.83 47.33-18.47 69.21-18.54-4.37-31 1.79-35.14 4.33l-5.42.79a12.85 12.85 0 0 0-10.73 9.86l-5 .37-.6.08a38.68 38.68 0 0 0-31.62 31.33 38 38 0 0 0 1.09 17.26H54.82v12h27.79a37.8 37.8 0 0 0 8.75 8.5l3.72 2.59a38.1 38.1 0 0 0 32 5.43l68.3-18.94c7.18 2.23 27 7.47 54.3 7.47a217.14 217.14 0 0 0 56.54-7.54l68.55 19a38.1 38.1 0 0 0 32-5.43l3.72-2.59a37.8 37.8 0 0 0 8.75-8.5h74zM360.13 278.19a12.7 12.7 0 0 1 9 6l1.36 2.27a12.85 12.85 0 0 1-14.12 19.11l-80-28.86 2.9-10.71 80.86 12.18zm-165.66 35h104.7a169 169 0 0 0 5.51 38.81c-49.12 10.65-95.73 4-114.62.36a163.11 163.11 0 0 0 4.41-39.18zm104.75-12H193.34a23.92 23.92 0 0 1-6-.67l40-14.41a34.11 34.11 0 0 0 5-1.8l.36-.13a34.84 34.84 0 0 0 14.46-12.64 34.7 34.7 0 0 0 14.78 12.78l.26.09a35.24 35.24 0 0 0 4.5 1.63l39.45 14.22a22.26 22.26 0 0 1-6.93.92zm-73.73-43.86 15.67-37V252a24.08 24.08 0 0 1-11.65 20.32zm27.67-5.33v-31.6L269 257.83l-3.92 14.61A24.06 24.06 0 0 1 253.16 252zm59.52-65.73a63.87 63.87 0 0 1 10 16.63l.15.35 35.81 62.63-29.52-4.45a59.37 59.37 0 0 0-10.79-29.63l-5.64-7.67zm-115-91c0-25.3 22.39-45.88 49.91-45.88A51.78 51.78 0 0 1 283 62.91a43.72 43.72 0 0 1 14.46 32.28v65.67a50.57 50.57 0 0 0-17.62-3.24l-2.46-5.62a40.67 40.67 0 0 0 12.67-29.51V99.33H205v23.17a40.64 40.64 0 0 0 13.2 30l-2.42 5.11h-2.64a50.46 50.46 0 0 0-15.54 2.45zm51.64 56.1h-3.46A28.81 28.81 0 0 1 217 122.5v-11.17h61v11.17a28.81 28.81 0 0 1-28.73 28.79zm20.64 13.58v2.25c0 10.14-9.94 18.38-22.15 18.38s-22.15-8.24-22.15-18.38V165l2.67-5.65a40.57 40.57 0 0 0 17.53 4h3.46a40.58 40.58 0 0 0 18.04-4.35zm-84.27 73.29 7.94-11V174.9a39.61 39.61 0 0 1 19.59-5.28h.56c1.44 15.59 16.14 27.88 34 27.88s32.55-12.26 34-27.82a40.13 40.13 0 0 1 18.9 6.08V228l8 10.85a46.42 46.42 0 0 1 8.17 20.67l-36.34-5.47-19.17-45.22a10.47 10.47 0 0 0-14.15-5.38 10.47 10.47 0 0 0-14.19 5.39L213.88 254l-36.45 5.49a48.38 48.38 0 0 1 8.21-21.33zm-15.95-34.29.3-.62a63 63 0 0 1 11.59-18.67v38.67l-5.68 7.91a61.19 61.19 0 0 0-10.75 30.14l-29.56 4.45zm-31.5 101.53a12.86 12.86 0 0 1-14.12-19.12l1.36-2.26a12.71 12.71 0 0 1 9-6.05l80.86-12.17 2.88 10.74zm48.34 58.42a315.81 315.81 0 0 0 61.14 5.93 280.21 280.21 0 0 0 60.67-6.42c3.75 9.88 9 19.54 16.36 27.55l-84.18-6.3c-21.84-15.47-35.68-9.46-46.84-4.61-6.07 2.64-11.15 4.84-17.34 4.11a87.5 87.5 0 0 0 10.19-20.26zM250 397.4l-4 27.72-6.67-1.85 4.2-26.36zm-125.64 1.14a.92.92 0 0 1 .78-.77l6.75-1 1.5-.19 1.24-1c.49-.36 12.22-8.72 32.42-1.46 13.31 4.79 23 .58 31.49-3.13 10.11-4.4 18.23-7.92 33.41 2.22l-4.31 27.05-89.94-20.85-12.43.2a.93.93 0 0 1-.71-.32.92.92 0 0 1-.22-.75zm-.46 63.19a26.15 26.15 0 0 1-21.97-3.73l-3.72-2.59a26.31 26.31 0 0 1-10.88-25.9 26.64 26.64 0 0 1 21.53-21.45l7-.53a12.79 12.79 0 0 0 9.59 4.06l11-.17 91.84 21.35zm96.24-14.24 30.8-8.49 30.23 8.38a202.81 202.81 0 0 1-61.05.11zm183.52 7.93-3.74 2.58a26.11 26.11 0 0 1-21.92 3.73l-120.37-33.38 4.37-30.06 131 9.78a26.62 26.62 0 0 1 21.52 21.45 26.31 26.31 0 0 1-10.88 25.9z"/><path d="M254.12 341.85a6.8 6.8 0 1 1-6.8-6.79 6.8 6.8 0 0 1 6.8 6.79z" style="fill:#122546"/></g></svg>