<?xml version="1.0" encoding="iso-8859-1"?>
<!-- Uploaded to: SVG Repo, www.svgrepo.com, Generator: SVG Repo Mixer Tools -->

<!DOCTYPE svg PUBLIC "-//W3C//DTD SVG 1.1//EN" "http://www.w3.org/Graphics/SVG/1.1/DTD/svg11.dtd">
<svg xmlns="http://www.w3.org/2000/svg" viewBox="0 0 217.16 209.23"><defs><style>.cls-1{fill:#232681}.cls-2,.cls-3{fill:none;stroke-miterlimit:10;stroke-width:6px}.cls-2{stroke:#232681}.cls-3{stroke:#212683}</style></defs><g id="Layer_2" data-name="Layer 2"><g id="Layer_1-2" data-name="Layer 1"><path class="cls-1" d="M39.92 6.58H37V3.63a3.63 3.63 0 0 0-7.26 0v2.95h-2.97a3.63 3.63 0 1 0 0 7.26h2.95v2.95a3.63 3.63 0 0 0 7.26 0v-2.95h2.95a3.63 3.63 0 0 0 0-7.26zM187.66 14.83h-2.95v-2.94a3.63 3.63 0 0 0-7.26 0v2.95h-2.95a3.63 3.63 0 1 0 0 7.26h2.95V25a3.63 3.63 0 0 0 7.26 0v-2.9h2.95a3.63 3.63 0 0 0 0-7.26zM182.24 199.85h-2v-2a2.46 2.46 0 0 0-4.92 0v2h-2a2.46 2.46 0 1 0 0 4.92h2v2a2.46 2.46 0 0 0 4.92 0v-2h2a2.46 2.46 0 0 0 0-4.92z"/><path class="cls-2" d="M55.45 180.85H207a7.12 7.12 0 0 0 7.12-7.13V50.33a7.12 7.12 0 0 0-7.12-7.12H10.12A7.12 7.12 0 0 0 3 50.33v123.39a7.12 7.12 0 0 0 7.12 7.13H30.2"/><path class="cls-1" d="M19.13 76.75V64.51a1.24 1.24 0 0 1 1.24-1.24h2.25a1.24 1.24 0 0 1 1.2.92L25 68.78a1.24 1.24 0 0 0 2.4 0l1.2-4.58a1.24 1.24 0 0 1 1.2-.92h2.3a1.24 1.24 0 0 1 1.24 1.24v12.23A1.24 1.24 0 0 1 32.1 78h-.28a1.24 1.24 0 0 1-1.24-1.24V66.4L27.9 77.05a1.24 1.24 0 0 1-1.2.94h-.93a1.24 1.24 0 0 1-1.2-.94L21.89 66.4v10.35A1.24 1.24 0 0 1 20.65 78h-.28a1.24 1.24 0 0 1-1.24-1.25zM36.3 76.75V64.51a1.24 1.24 0 0 1 1.24-1.24H46a1.24 1.24 0 0 1 1.24 1.24A1.24 1.24 0 0 1 46 65.76h-5.49A1.24 1.24 0 0 0 39.27 67v.78A1.24 1.24 0 0 0 40.51 69h4.91a1.24 1.24 0 0 1 1.24 1.24 1.24 1.24 0 0 1-1.24 1.24h-4.91a1.24 1.24 0 0 0-1.24 1.24v1.53a1.24 1.24 0 0 0 1.24 1.24h5.74a1.24 1.24 0 0 1 1.24 1.24A1.24 1.24 0 0 1 46.25 78h-8.71a1.24 1.24 0 0 1-1.24-1.25zM50 76.75V64.51a1.24 1.24 0 0 1 1.24-1.24h2.25a1.24 1.24 0 0 1 1.2.92l1.22 4.59a1.24 1.24 0 0 0 2.4 0l1.2-4.58a1.24 1.24 0 0 1 1.2-.92h2.26a1.24 1.24 0 0 1 1.24 1.24v12.23A1.24 1.24 0 0 1 62.95 78h-.28a1.24 1.24 0 0 1-1.24-1.24V66.4l-2.69 10.65a1.24 1.24 0 0 1-1.2.94h-.93a1.24 1.24 0 0 1-1.2-.94L52.73 66.4v10.35A1.24 1.24 0 0 1 51.49 78h-.28A1.24 1.24 0 0 1 50 76.75zM67.15 64.51a1.24 1.24 0 0 1 1.24-1.24H73a17 17 0 0 1 2.61.15 3.83 3.83 0 0 1 1.54.61 3.78 3.78 0 0 1 1.13 1.23 3.33 3.33 0 0 1 .48 1.74 3.49 3.49 0 0 1-2.07 3.19 3.87 3.87 0 0 1 2.07 1.34 3.54 3.54 0 0 1 .72 2.22 4.37 4.37 0 0 1-.47 2 3.93 3.93 0 0 1-1.28 1.52 4.21 4.21 0 0 1-2 .7Q75 78 72.16 78h-3.77a1.24 1.24 0 0 1-1.24-1.24zm3 1.21v3.4h1.95q1.74 0 2.16-.05a2 2 0 0 0 1.2-.53 1.55 1.55 0 0 0 .44-1.15 1.61 1.61 0 0 0-.38-1.11 1.7 1.7 0 0 0-1.12-.52q-.44-.05-2.54-.05zm0 5.85v2.7a1.24 1.24 0 0 0 1.24 1.24h1.51a13.44 13.44 0 0 0 2-.09 1.84 1.84 0 0 0 1.1-.59 1.81 1.81 0 0 0 .42-1.25 1.92 1.92 0 0 0-.32-1.12 1.82 1.82 0 0 0-.93-.67 10.1 10.1 0 0 0-2.64-.21zM82 76.75V64.51a1.24 1.24 0 0 1 1.24-1.24h8.43a1.24 1.24 0 0 1 1.24 1.24 1.24 1.24 0 0 1-1.24 1.24H86.2A1.24 1.24 0 0 0 85 67v.78A1.24 1.24 0 0 0 86.2 69h4.91a1.24 1.24 0 0 1 1.24 1.24 1.24 1.24 0 0 1-1.24 1.24H86.2a1.24 1.24 0 0 0-1.2 1.26v1.53a1.24 1.24 0 0 0 1.24 1.24h5.74a1.24 1.24 0 0 1 1.24 1.24A1.24 1.24 0 0 1 91.94 78h-8.71A1.24 1.24 0 0 1 82 76.75zM95.71 76.75V64.51A1.24 1.24 0 0 1 97 63.27h5a10.71 10.71 0 0 1 3.43.4 3.38 3.38 0 0 1 1.71 1.41 4.24 4.24 0 0 1 .64 2.32 3.93 3.93 0 0 1-1 2.74 4.68 4.68 0 0 1-2.91 1.36 6.93 6.93 0 0 1 1.59 1.23 16.77 16.77 0 0 1 1.69 2.39l1.8 2.87h-2.89a1.24 1.24 0 0 1-1-.55l-1.78-2.65a20.78 20.78 0 0 0-1.57-2.16 2.28 2.28 0 0 0-.89-.61 4.9 4.9 0 0 0-1.5-.17h-.6v4.9A1.24 1.24 0 0 1 97.44 78H97a1.24 1.24 0 0 1-1.29-1.25zm3-7.25h2.2a11.35 11.35 0 0 0 2.67-.18 1.6 1.6 0 0 0 .83-.62 1.92 1.92 0 0 0 .3-1.1 1.76 1.76 0 0 0-.4-1.2 1.82 1.82 0 0 0-1.12-.58q-.36-.05-2.17-.05h-2.34z"/><rect class="cls-2" x="126.33" y="91.96" width="69.33" height="69.33" rx="2.83" ry="2.83"/><circle class="cls-2" cx="161" cy="118.03" r="8.59"/><path class="cls-2" d="M161 135.29a13 13 0 0 1 13 13v13h-26v-13a13 13 0 0 1 13-13z"/><rect class="cls-1" x="19.13" y="97.12" width="83.2" height="8" rx="4" ry="4"/><rect class="cls-1" x="19.13" y="123.26" width="83.2" height="8" rx="4" ry="4"/><rect class="cls-1" x="19.13" y="149.39" width="83.2" height="8" rx="4" ry="4"/><path class="cls-3" d="M214.16 56.62H148M130.83 56.62h11.5M214.16 77.99h-50.83"/><circle class="cls-1" cx="42.91" cy="180.85" r="2.9"/></g></g></svg>