<?xml version="1.0" encoding="iso-8859-1"?>
<!-- Uploaded to: SVG Repo, www.svgrepo.com, Generator: SVG Repo Mixer Tools -->

<!DOCTYPE svg PUBLIC "-//W3C//DTD SVG 1.1//EN" "http://www.w3.org/Graphics/SVG/1.1/DTD/svg11.dtd">
<svg fill="#fff"  width="60px" height="60px" version="1.1" id="Capa_1" xmlns="http://www.w3.org/2000/svg" xmlns:xlink="http://www.w3.org/1999/xlink" 
	 viewBox="0 0 246.156 246.156" xml:space="preserve">
<g>
	<path d="M42.5,89.788c18.19,0,33.705-11.432,39.769-27.5h81.619c6.064,16.068,21.578,27.5,39.769,27.5
		c23.472,0,42.5-19.027,42.5-42.5c0-23.472-19.028-42.5-42.5-42.5c-18.19,0-33.705,11.432-39.769,27.5H82.269
		C76.205,16.22,60.69,4.788,42.5,4.788C19.028,4.788,0,23.816,0,47.288C0,70.761,19.028,89.788,42.5,89.788z"/>
	<path d="M212.778,158.381c-17.324-5.547-35.585,0.61-46.259,14.064l-77.733-24.887c-0.876-17.151-12.165-32.77-29.49-38.315
		c-22.354-7.157-46.278,5.162-53.435,27.518c-7.157,22.354,5.163,46.277,27.518,53.435c17.324,5.547,35.584-0.61,46.259-14.064
		l77.733,24.887c0.876,17.151,12.166,32.77,29.49,38.315c22.355,7.157,46.278-5.162,53.435-27.518
		C247.453,189.461,235.132,165.537,212.778,158.381z"/>
</g>
</svg>