<svg width="60px" height="60px" xmlns="http://www.w3.org/2000/svg" viewBox="0 0 512 512" style="enable-background:new 0 0 512 512" xml:space="preserve"><path style="fill:#939393" d="M493.137 277.558H18.863c-5.953 0-10.779-4.826-10.779-10.779v-21.558c0-5.953 4.826-10.779 10.779-10.779h474.274c5.953 0 10.779 4.826 10.779 10.779v21.558c0 5.953-4.826 10.779-10.779 10.779z"/><path style="fill:#5b5b5b" d="M503.916 256v10.779c0 5.953-4.826 10.779-10.779 10.779H18.863c-5.953 0-10.779-4.826-10.779-10.779V256h495.832z"/><path style="fill:#004859" d="M169.768 126.653v258.695c0 11.906-9.651 21.558-21.558 21.558h-21.558c-11.906 0-21.558-9.651-21.558-21.558v-64.674c0 11.906-9.651 21.558-21.558 21.558H61.979c-11.906 0-21.558-9.651-21.558-21.558V191.326c0-11.906 9.651-21.558 21.558-21.558h21.558c11.906 0 21.558 9.651 21.558 21.558v-64.674c0-11.906 9.651-21.558 21.558-21.558h21.558c11.906.001 21.557 9.652 21.557 21.559zm280.253 43.115h-21.558c-11.906 0-21.558 9.651-21.558 21.558v-64.674c0-11.906-9.651-21.558-21.558-21.558h-21.558c-11.906 0-21.558 9.651-21.558 21.558v258.695c0 11.906 9.651 21.558 21.558 21.558h21.558c11.906 0 21.558-9.651 21.558-21.558v-64.674c0 11.906 9.651 21.558 21.558 21.558h21.558c11.906 0 21.558-9.651 21.558-21.558V191.326c0-11.906-9.652-21.558-21.558-21.558z"/><path style="fill:#007dbc" d="M61.979 309.895c-11.906 0-21.558-9.651-21.558-21.558v-97.011c0-11.906 9.651-21.558 21.558-21.558h21.558v118.568c0 11.907-9.652 21.559-21.558 21.559zm86.232-21.558V105.095h-21.558c-11.906 0-21.558 9.651-21.558 21.558v161.684c0 11.906 9.651 21.558 21.558 21.558 11.906 0 21.558-9.652 21.558-21.558zm237.136 0V105.095h-21.558c-11.906 0-21.558 9.651-21.558 21.558v161.684c0 11.906 9.651 21.558 21.558 21.558s21.558-9.652 21.558-21.558zm64.674 0V169.768h-21.558c-11.906 0-21.558 9.651-21.558 21.558v97.011c0 11.906 9.651 21.558 21.558 21.558s21.558-9.652 21.558-21.558z"/><path style="fill:#fff" d="M148.211 142.282v1.078a8.084 8.084 0 0 1-16.168 0v-1.078a8.084 8.084 0 0 1 16.168 0zm-8.085 19.402a8.084 8.084 0 0 0-8.084 8.084v43.116a8.084 8.084 0 0 0 16.168 0v-43.116a8.084 8.084 0 0 0-8.084-8.084zm-64.673 32.337a8.084 8.084 0 0 0-8.084 8.084v1.078a8.084 8.084 0 0 0 16.168 0v-1.078a8.085 8.085 0 0 0-8.084-8.084zm0 27.486a8.084 8.084 0 0 0-8.084 8.084V256a8.084 8.084 0 0 0 16.168 0v-26.408a8.085 8.085 0 0 0-8.084-8.085zm366.484-27.486a8.084 8.084 0 0 0-8.084 8.084v1.078a8.084 8.084 0 0 0 16.168 0v-1.078a8.085 8.085 0 0 0-8.084-8.084zm-64.674-32.337a8.084 8.084 0 0 0-8.084 8.084v43.116a8.084 8.084 0 0 0 16.168 0v-43.116a8.084 8.084 0 0 0-8.084-8.084zm0-27.486a8.084 8.084 0 0 0-8.084 8.084v1.078a8.084 8.084 0 0 0 16.168 0v-1.078a8.084 8.084 0 0 0-8.084-8.084zm64.674 87.309a8.084 8.084 0 0 0-8.084 8.084V256a8.084 8.084 0 0 0 16.168 0v-26.408a8.085 8.085 0 0 0-8.084-8.085z"/><path d="M493.137 226.358h-13.474v-35.032c0-16.344-13.297-29.642-29.642-29.642h-21.558a29.475 29.475 0 0 0-13.474 3.243v-38.275c0-16.344-13.297-29.642-29.642-29.642h-21.558c-16.345 0-29.642 13.298-29.642 29.642v99.705H177.853v-99.705c0-16.344-13.297-29.642-29.642-29.642h-21.558c-16.345 0-29.642 13.298-29.642 29.642v38.275a29.456 29.456 0 0 0-13.474-3.243H61.979c-16.345 0-29.642 13.298-29.642 29.642v35.032H18.863C8.463 226.358 0 234.82 0 245.221v21.558c0 10.401 8.463 18.863 18.863 18.863h13.474v35.032c0 16.344 13.297 29.642 29.642 29.642h21.558c4.848 0 9.429-1.171 13.474-3.243v38.275c0 4.851 1.178 9.428 3.253 13.474H78.147c-4.465 0-8.084 3.618-8.084 8.084s3.62 8.084 8.084 8.084h355.705c4.465 0 8.084-3.618 8.084-8.084s-3.62-8.084-8.084-8.084h-22.116a29.448 29.448 0 0 0 3.253-13.474v-38.275a29.456 29.456 0 0 0 13.474 3.243h21.558c16.345 0 29.642-13.298 29.642-29.642v-35.032h13.474c10.401 0 18.863-8.463 18.863-18.863v-21.558c0-10.401-8.463-18.863-18.863-18.863zM177.853 385.347v-99.705h156.295v99.705c0 4.851 1.178 9.428 3.253 13.474H174.6a29.448 29.448 0 0 0 3.253-13.474zm156.294-142.821v26.947H177.853v-26.947h156.294zM18.863 269.474a2.698 2.698 0 0 1-2.695-2.695v-21.558a2.698 2.698 0 0 1 2.695-2.695h13.474v26.947H18.863zm64.674 64.673H61.979c-7.43 0-13.474-6.044-13.474-13.474V191.326c0-7.43 6.044-13.474 13.474-13.474h21.558c7.43 0 13.474 6.044 13.474 13.474v129.347c0 7.431-6.044 13.474-13.474 13.474zm29.642 51.2V126.652c0-7.43 6.044-13.474 13.474-13.474h21.558c7.43 0 13.474 6.044 13.474 13.474v258.695c0 7.43-6.044 13.474-13.474 13.474h-21.558c-7.43 0-13.474-6.044-13.474-13.474zm250.61 13.474c-7.43 0-13.474-6.044-13.474-13.474V126.653c0-7.43 6.044-13.474 13.474-13.474h21.558c7.43 0 13.474 6.044 13.474 13.474V385.348c0 7.43-6.044 13.474-13.474 13.474h-21.558zm99.706-78.147c0 7.43-6.044 13.474-13.474 13.474h-21.558c-7.43 0-13.474-6.044-13.474-13.474V191.326c0-7.43 6.044-13.474 13.474-13.474h21.558c7.43 0 13.474 6.044 13.474 13.474v129.348zm32.337-53.895a2.698 2.698 0 0 1-2.695 2.695h-13.474v-26.947h13.474a2.698 2.698 0 0 1 2.695 2.695v21.557zM17.246 406.905a8.084 8.084 0 0 1-8.084 8.084H8.084c-4.465 0-8.084-3.618-8.084-8.084s3.62-8.084 8.084-8.084h1.078a8.084 8.084 0 0 1 8.084 8.084zm42.038 0a8.084 8.084 0 0 1-8.084 8.084h-1.078c-4.465 0-8.084-3.618-8.084-8.084s3.62-8.084 8.084-8.084H51.2a8.084 8.084 0 0 1 8.084 8.084zm410.678 0a8.084 8.084 0 0 1-8.084 8.084H460.8c-4.465 0-8.084-3.618-8.084-8.084s3.62-8.084 8.084-8.084h1.078a8.084 8.084 0 0 1 8.084 8.084zm42.038 0a8.084 8.084 0 0 1-8.084 8.084h-1.078c-4.465 0-8.084-3.618-8.084-8.084s3.62-8.084 8.084-8.084h1.078a8.084 8.084 0 0 1 8.084 8.084z"/></svg>