<?xml version="1.0" encoding="iso-8859-1"?>
<!-- Uploaded to: SVG Repo, www.svgrepo.com, Generator: SVG Repo Mixer Tools -->

<!DOCTYPE svg PUBLIC "-//W3C//DTD SVG 1.1//EN" "http://www.w3.org/Graphics/SVG/1.1/DTD/svg11.dtd">
<svg xmlns="http://www.w3.org/2000/svg" fill="#fff"  width="60px" height="60px" viewBox="0 0 179.44 189.93"><defs><style>.cls-1{fill:#fff}.cls-2{fill:none;stroke:#232681;stroke-miterlimit:10;stroke-width:6px}</style></defs><g id="Layer_2" data-name="Layer 2"><g id="Layer_1-2" data-name="Layer 1"><path class="cls-1" d="M14.38 26.46h-2v-2a2.46 2.46 0 0 0-4.92 0v2h-2a2.46 2.46 0 1 0 0 4.92h2v2a2.46 2.46 0 0 0 4.92 0v-2h2a2.46 2.46 0 0 0 0-4.92zM175.16 7H172V3.84a3.84 3.84 0 0 0-7.69 0V7h-3.12a3.84 3.84 0 1 0 0 7.69h3.12v3.12a3.84 3.84 0 0 0 7.69 0v-3.16h3.12a3.84 3.84 0 0 0 0-7.69z"/><rect class="cls-2" x="3" y="77.89" width="173.44" height="109.04" rx="10.02" ry="10.02"/><path class="cls-2" d="M102.56 28.92h29.3a12.24 12.24 0 0 1 12.24 12.25v35.3H35.33v-35.3a12.25 12.25 0 0 1 12.25-12.25h29.74"/><path class="cls-1" d="M67.58 53.64a1.85 1.85 0 0 1 1.85-1.85h5.86a1.85 1.85 0 0 1 1.85 1.85v6a1.77 1.77 0 0 1-.65 1.42 13.6 13.6 0 0 1-3.39 1.82 14.69 14.69 0 0 1-5.35 1 12 12 0 0 1-6-1.45 9.19 9.19 0 0 1-3.85-4.13 13.36 13.36 0 0 1-1.29-5.85A12.64 12.64 0 0 1 58 46.41a9.68 9.68 0 0 1 4.21-4.09 11.35 11.35 0 0 1 5.26-1.09 10.49 10.49 0 0 1 6.39 1.71 7.44 7.44 0 0 1 2.19 2.58 1.83 1.83 0 0 1-1.36 2.56l-.85.16a1.86 1.86 0 0 1-1.94-.92A4.52 4.52 0 0 0 70.71 46a5.27 5.27 0 0 0-3.2-.94 6 6 0 0 0-4.62 1.84 7.76 7.76 0 0 0-1.71 5.47q0 3.91 1.74 5.86a5.8 5.8 0 0 0 4.55 2 7.63 7.63 0 0 0 2.79-.55 9.57 9.57 0 0 0 2.4-1.33v-2.86h-3.23a1.85 1.85 0 0 1-1.85-1.85zM87 61.71v-6.86a1.85 1.85 0 0 0-.29-1L79 41.6h4.1a1.85 1.85 0 0 1 1.59.9l3 5.08a1.85 1.85 0 0 0 3.19 0l2.95-5.05a1.85 1.85 0 0 1 1.6-.92h4L91.7 53.89a1.85 1.85 0 0 0-.29 1v6.82a1.85 1.85 0 0 1-1.85 1.85h-.72A1.85 1.85 0 0 1 87 61.71zM101.62 61.71V43.45a1.85 1.85 0 0 1 1.85-1.85h3.36a1.85 1.85 0 0 1 1.79 1.4l1.82 6.84a1.85 1.85 0 0 0 3.58 0l1.8-6.83a1.85 1.85 0 0 1 1.79-1.38H121a1.85 1.85 0 0 1 1.85 1.85v18.23a1.85 1.85 0 0 1-1.85 1.85h-.42a1.85 1.85 0 0 1-1.85-1.85V46.28l-4 15.88a1.85 1.85 0 0 1-1.79 1.4h-1.38a1.85 1.85 0 0 1-1.79-1.4l-4-15.88v15.43a1.85 1.85 0 0 1-1.85 1.85h-.42a1.85 1.85 0 0 1-1.88-1.85z"/><path class="cls-2" d="M63.05 118.25h53.33v68.68H63.05zM3 118.25h173.44M89.72 118.25v68.68M3 157.42h60.05M116.38 157.42h60.06M3 130.25h21.11M27.44 130.25h10.17M3 94.42h88.94M99.48 94.42h7.46M3 106.42h38.94"/><circle class="cls-1" cx="90.36" cy="28.92" r="2.9"/></g></g></svg>